<?xml version="1.0" encoding="utf-8"?>
<!-- Generator: Adobe Illustrator 25.1.0, SVG Export Plug-In . SVG Version: 6.00 Build 0)  -->
<svg version="1.1" id="Layer_1" xmlns="http://www.w3.org/2000/svg" xmlns:xlink="http://www.w3.org/1999/xlink" x="0px" y="0px"
	 viewBox="0 0 24 24" style="enable-background:new 0 0 24 24;" xml:space="preserve">
<style type="text/css">
	.st0{fill:none;}
	.st1{fill:#666666;}
</style>
<path class="st0" d="M0,0h24v24H0V0z"/>
<g>
	<path class="st1" d="M1.2,1.8L0,3.1l5.1,5.1C5,8.4,5,8.7,5,9c0,2.4,1.2,4.5,3,5.7V17c0,0.5,0.4,1,1,1h5.9l6,6l1.3-1.3L1.2,1.8z"/>
	<path class="st1" d="M19,9c0-3.9-3.1-7-7-7C9.8,2,7.8,3,6.6,4.6l9.8,9.8C18,13.1,19,11.1,19,9z"/>
	<path class="st1" d="M9,21c0,0.5,0.4,1,1,1h4c0.6,0,1-0.5,1-1v-1H9V21z"/>
</g>
</svg>
