<svg xmlns="http://www.w3.org/2000/svg" viewBox="0 0 24 24"><defs><style>.cls-1{fill:none;}.cls-2{fill:#666;}</style></defs><g id="Layer_2" data-name="Layer 2"><g id="Layer_1-2" data-name="Layer 1"><rect class="cls-1" width="24" height="24"/><path class="cls-2" d="M20,17.5a2,2,0,0,0,2-2V5.5a2,2,0,0,0-2-2H5.5L20,18Z"/><polygon class="cls-2" points="20.5 18.5 22.5 20.5 24 20.5 24 18.5 20.5 18.5"/><path class="cls-2" d="M20,20.5l-5.76-5.73-13-13L0,3.1,2.05,5.15A2.11,2.11,0,0,0,2,5.5v10a2,2,0,0,0,2,2v1H0v2H17.4L20.9,24l1.3-1.3L20,20.5Z"/></g></g></svg>