<?xml version="1.0" encoding="utf-8"?>
<!-- Generator: Adobe Illustrator 26.0.3, SVG Export Plug-In . SVG Version: 6.00 Build 0)  -->
<svg version="1.1" id="Layer_1" xmlns="http://www.w3.org/2000/svg" xmlns:xlink="http://www.w3.org/1999/xlink" x="0px" y="0px"
	 viewBox="0 0 24 24" style="enable-background:new 0 0 24 24;" xml:space="preserve">
<style type="text/css">
	.st0{fill:none;}
	.st1{fill:#666666;}
</style>
<path class="st0" d="M0,0v24h24V0H0z M18.3,20.6H5.7V13c0.8,0,1.5-0.3,2.1-0.8C8.4,12.7,9.1,13,9.9,13c0.8,0,1.5-0.3,2.1-0.8
	c0.6,0.5,1.3,0.8,2.1,0.8c0.8,0,1.5-0.3,2.1-0.8c0.6,0.5,1.3,0.8,2.1,0.8V20.6z"/>
<path class="st1" d="M19.7,7.1l-4.2-3V2h-7v2.1l-4.2,3c0,0,0,0-0.1,0V22h15.5L19.7,7.1C19.7,7.1,19.7,7.1,19.7,7.1z M18.3,20.6H5.7
	V13c0.8,0,1.5-0.3,2.1-0.8C8.4,12.7,9.1,13,9.9,13c0.8,0,1.5-0.3,2.1-0.8c0.6,0.5,1.3,0.8,2.1,0.8c0.8,0,1.5-0.3,2.1-0.8
	c0.6,0.5,1.3,0.8,2.1,0.8V20.6z"/>
<path class="st0" d="M18.3,13v7.5H5.7V13c0.8,0,1.5-0.3,2.1-0.8C8.4,12.7,9.1,13,9.9,13c0.8,0,1.5-0.3,2.1-0.8
	c0.6,0.5,1.3,0.8,2.1,0.8c0.8,0,1.5-0.3,2.1-0.8C16.8,12.7,17.5,13,18.3,13z"/>
</svg>
